<svg width="421" height="385" viewBox="0 0 421 385" fill="none"
  xmlns="http://www.w3.org/2000/svg">
  <path d="M327.059 356.04L407.705 208.781C407.844 208.527 407.981 208.277 408.117 208.031C410.558 203.58 412.428 200.169 413.269 196.48C414.217 192.321 414.167 187.996 413.121 183.861C412.194 180.193 410.244 176.827 407.699 172.434C407.557 172.191 407.415 171.944 407.27 171.694L323.188 26.3691C323.037 26.1094 322.889 25.8529 322.743 25.5998C320.112 21.0467 318.097 17.5587 315.268 14.8667C312.08 11.8322 308.197 9.62333 303.959 8.43257C300.2 7.37622 296.172 7.42606 290.914 7.49113C290.622 7.49475 290.326 7.49841 290.025 7.50194L126.626 9.42083C126.326 9.42436 126.03 9.42765 125.737 9.4309C120.479 9.48932 116.451 9.53408 112.718 10.6784C108.509 11.9684 104.679 14.2678 101.563 17.3764C98.7979 20.1341 96.8652 23.6686 94.3423 28.2823C94.202 28.5387 94.06 28.7985 93.9159 29.0616L13.2696 176.321C13.1309 176.574 12.9938 176.824 12.8585 177.071C10.4173 181.522 8.54658 184.933 7.70563 188.622C6.75754 192.781 6.80833 197.105 7.85382 201.241C8.78114 204.909 10.7314 208.275 13.2763 212.667C13.4174 212.911 13.5604 213.158 13.7052 213.408L97.7874 358.733C97.9376 358.992 98.0857 359.248 98.2319 359.501C100.862 364.055 102.878 367.543 105.707 370.235C108.895 373.27 112.778 375.478 117.016 376.669C120.775 377.725 124.803 377.676 130.061 377.611C130.353 377.607 130.649 377.603 130.95 377.6L294.349 375.681C294.649 375.677 294.945 375.674 295.238 375.671C300.496 375.612 304.524 375.568 308.257 374.423C312.466 373.133 316.296 370.834 319.412 367.725C322.177 364.968 324.11 361.433 326.633 356.82C326.773 356.563 326.915 356.303 327.059 356.04Z" fill="#F7F3D2" stroke="#570029" stroke-width="14"/>
  <path d="M211.302 356.248C228.66 356.248 242.731 342.712 242.731 326.013C242.731 309.315 228.66 295.778 211.302 295.778C193.944 295.778 179.873 309.315 179.873 326.013C179.873 342.712 193.944 356.248 211.302 356.248Z" fill="#FF5E8A"/>
  <path d="M211.302 250.241C228.66 250.241 242.731 236.704 242.731 220.005C242.731 203.307 228.66 189.77 211.302 189.77C193.944 189.77 179.873 203.307 179.873 220.005C179.873 236.704 193.944 250.241 211.302 250.241Z" fill="#FF5E8A"/>
  <path d="M274.549 250.241C291.907 250.241 305.978 236.704 305.978 220.005C305.978 203.307 291.907 189.77 274.549 189.77C257.191 189.77 243.12 203.307 243.12 220.005C243.12 236.704 257.191 250.241 274.549 250.241Z" fill="#FF5E8A"/>
  <path d="M148.449 250.241C165.807 250.241 179.878 236.704 179.878 220.005C179.878 203.307 165.807 189.77 148.449 189.77C131.091 189.77 117.02 203.307 117.02 220.005C117.02 236.704 131.091 250.241 148.449 250.241Z" fill="#FF5E8A"/>
  <path d="M242.736 303.245C260.094 303.245 274.165 289.708 274.165 273.009C274.165 256.311 260.094 242.774 242.736 242.774C225.378 242.774 211.307 256.311 211.307 273.009C211.307 289.708 225.378 303.245 242.736 303.245Z" fill="#FF5E8A"/>
  <path d="M179.876 303.245C197.234 303.245 211.305 289.708 211.305 273.009C211.305 256.311 197.234 242.774 179.876 242.774C162.518 242.774 148.447 256.311 148.447 273.009C148.447 289.708 162.518 303.245 179.876 303.245Z" fill="#FF5E8A"/>
  <path d="M242.736 197.237C260.094 197.237 274.165 183.7 274.165 167.001C274.165 150.303 260.094 136.766 242.736 136.766C225.378 136.766 211.307 150.303 211.307 167.001C211.307 183.7 225.378 197.237 242.736 197.237Z" fill="#FF5E8A"/>
  <path d="M179.876 197.237C197.234 197.237 211.305 183.7 211.305 167.001C211.305 150.303 197.234 136.766 179.876 136.766C162.518 136.766 148.447 150.303 148.447 167.001C148.447 183.7 162.518 197.237 179.876 197.237Z" fill="#FF5E8A"/>
  <path d="M218.326 82.5C231.078 109.022 226.978 128.437 223.667 138.25C221.087 145.897 215.512 148.057 208.974 145.927C199.453 142.826 181.422 134.425 168.66 107.882C154.592 78.622 168.66 44.4608 168.66 44.4608C168.66 44.4608 204.258 53.2407 218.326 82.5Z" fill="#C1DC3C"/>
  <path d="M312 220.003C312 200.509 296.238 184.499 276.331 183.122C278.796 178.246 280.183 172.776 280.183 166.998C280.183 146.603 262.935 130.01 241.734 130.01C238.596 130.01 230.743 132.211 227.822 132.896C236.143 112.225 222.322 76.896 222.322 76.896C222.322 76.896 222.775 47.4123 253.725 37.1377C257.39 35.9207 259.335 32.0772 258.07 28.5515C256.805 25.0257 252.81 23.1553 249.145 24.3709C227.467 31.5667 218.241 46.5337 214.319 57.822C213.685 59.6462 213.169 61.4319 212.747 63.152C195.383 44.3309 171.57 37.0715 170.313 36.6987C166.758 35.6453 162.963 37.4436 161.667 40.7979C161.058 42.375 146.908 79.7796 162.029 111.231C165.466 118.379 169.51 124.757 174.093 130.308C155.143 132.582 140.428 148.164 140.428 166.999C140.428 172.788 141.82 178.267 144.295 183.15C124.566 184.7 109 200.631 109 220.003C109 239.376 124.566 255.307 144.294 256.857C141.82 261.74 140.428 267.22 140.428 273.008C140.428 292.381 155.994 308.312 175.724 309.861C173.249 314.744 171.857 320.225 171.857 326.013C171.857 346.407 189.105 363 210.305 363C231.505 363 248.753 346.408 248.753 326.013C248.753 320.224 247.361 314.744 244.886 309.861C264.616 308.312 280.182 292.38 280.182 273.008C280.182 267.231 278.796 261.76 276.33 256.884C296.238 255.508 312 239.499 312 220.003ZM210.306 196.522C223.766 196.522 234.715 207.056 234.715 220.003C234.715 232.951 223.765 243.486 210.306 243.486C196.847 243.486 185.897 232.951 185.897 220.003C185.897 207.056 196.847 196.522 210.306 196.522ZM266.144 166.999C266.144 179.948 255.193 190.481 241.735 190.481C228.276 190.481 217.326 179.947 217.326 166.999C217.326 154.052 228.276 143.517 241.735 143.517C255.193 143.517 266.144 154.051 266.144 166.999ZM172.78 52.0915C183.042 56.4601 203.636 69.0484 212.747 88C220.553 107.713 220.5 125.5 212.747 143.517C197.5 133 185.32 127.5 174.772 105.562C165.512 86.3007 169.785 63.1918 172.78 52.0915ZM178.877 143.517C192.337 143.517 203.286 154.052 203.286 166.999C203.286 179.947 192.336 190.481 178.877 190.481C165.418 190.481 154.467 179.947 154.467 166.999C154.467 154.052 165.418 143.517 178.877 143.517ZM123.039 220.003C123.039 207.055 133.989 196.522 147.448 196.522C160.907 196.522 171.858 207.056 171.858 220.003C171.858 232.951 160.907 243.486 147.448 243.486C133.989 243.486 123.039 232.952 123.039 220.003ZM154.467 273.008C154.467 260.06 165.418 249.526 178.877 249.526C192.336 249.526 203.286 260.06 203.286 273.008C203.286 285.956 192.336 296.49 178.877 296.49C165.418 296.49 154.467 285.956 154.467 273.008ZM210.306 349.495C196.847 349.495 185.897 338.961 185.897 326.013C185.897 313.066 196.847 302.531 210.306 302.531C223.765 302.531 234.715 313.066 234.715 326.013C234.714 338.961 223.765 349.495 210.306 349.495ZM241.734 296.49C228.274 296.49 217.325 285.956 217.325 273.009C217.325 260.061 228.275 249.526 241.734 249.526C255.193 249.526 266.144 260.061 266.144 273.009C266.144 285.956 255.193 296.49 241.734 296.49ZM273.551 243.486C260.092 243.486 249.142 232.951 249.142 220.003C249.142 207.056 260.092 196.522 273.551 196.522C287.01 196.522 297.96 207.056 297.96 220.003C297.96 232.952 287.011 243.486 273.551 243.486Z" fill="#570029"/>
</svg>
