<svg xmlns="http://www.w3.org/2000/svg" fill="none" viewBox="0 0 512 512">
  <path fill="#F7F3D2" stroke="#570029" stroke-width="17" d="m392 456.7 102.2-181.3.4-.8c2.5-4.4 4.5-8 5.4-11.8 1-4.4 1-9 0-13.4-1-3.8-3-7.4-5.4-11.8l-.4-.8L392 55.5l-.5-.8a47.4 47.4 0 0 0-7.6-11.1 28.5 28.5 0 0 0-11.8-7 47.4 47.4 0 0 0-14.4-1.1H154c-5.1 0-9.4 0-13.3 1.2a28.5 28.5 0 0 0-11.9 6.9c-3 2.9-5 6.6-7.6 11l-.4 1L18.7 236.7l-.5.8c-2.4 4.4-4.4 8-5.4 11.8-1 4.4-1 9 0 13.4 1 3.9 3 7.4 5.4 11.8l.5.8 102 181.3.5.8c2.6 4.5 4.7 8.2 7.6 11.1 3.3 3.3 7.4 5.6 11.9 7a50 50 0 0 0 13.3 1.1h204.8c5.2 0 9.4 0 13.4-1.2 4.4-1.3 8.5-3.6 11.8-6.9 3-2.9 5-6.6 7.6-11l.5-1Z"/>
  <path fill="#FF5E8A" d="M257.4 452.3A37 37 0 0 0 295 416a37 37 0 0 0-37.6-36.2 37 37 0 0 0-37.6 36.2 37 37 0 0 0 37.6 36.2Z"/>
  <path fill="#FF5E8A" d="M257.4 325.3a37 37 0 0 0 37.6-36.2 37 37 0 0 0-37.6-36.2 37 37 0 0 0-37.6 36.2 37 37 0 0 0 37.6 36.2Z"/>
  <path fill="#FF5E8A" d="M333.1 325.3a37 37 0 0 0 37.7-36.2A37 37 0 0 0 333 253a37 37 0 0 0-37.6 36.2 37 37 0 0 0 37.6 36.2Z"/>
  <path fill="#FF5E8A" d="M182.1 325.3a37 37 0 0 0 37.7-36.2A37 37 0 0 0 182 253a37 37 0 0 0-37.6 36.2 37 37 0 0 0 37.6 36.2Z"/>
  <path fill="#FF5E8A" d="M295 388.8a37 37 0 0 0 37.7-36.2 37 37 0 0 0-37.7-36.2 37 37 0 0 0-37.6 36.2 37 37 0 0 0 37.6 36.2Z"/>
  <path fill="#FF5E8A" d="M219.8 388.8a37 37 0 0 0 37.6-36.2 37 37 0 0 0-37.6-36.2 37 37 0 0 0-37.7 36.2 37 37 0 0 0 37.7 36.2Z"/>
  <path fill="#FF5E8A" d="M295 261.9a37 37 0 0 0 37.7-36.3 37 37 0 0 0-37.7-36.2 37 37 0 0 0-37.6 36.2A37 37 0 0 0 295 262Z"/>
  <path fill="#FF5E8A" d="M219.8 261.9a37 37 0 0 0 37.6-36.3 37 37 0 0 0-37.6-36.2 37 37 0 0 0-37.7 36.2 37 37 0 0 0 37.7 36.3Z"/>
  <path fill="#C1DC3C" d="M265.8 124.4c15.3 31.8 10.4 55 6.4 66.8-3 9.2-9.8 11.8-17.6 9.2-11.4-3.7-33-13.8-48.3-45.6-16.8-35 0-76 0-76s42.7 10.6 59.5 45.6Z"/>
  <path fill="#570029" d="M378 289.1a45.1 45.1 0 0 0-42.7-44.1c3-5.9 4.6-12.4 4.6-19.4a45 45 0 0 0-46-43.9c-10.5 0-13.2 2.3-16.7 3.1 10-24.8-6.6-67-6.6-67s.5-35.4 37.6-47.7a8 8 0 0 0 5.2-10.3 8.5 8.5 0 0 0-10.7-5 63.2 63.2 0 0 0-43.6 46.5 124.7 124.7 0 0 0-50.8-31.7 8.5 8.5 0 0 0-10.3 4.9c-.8 1.9-17.7 46.7.4 84.4a112 112 0 0 0 14.4 22.8 45 45 0 0 0-40.3 44c0 6.9 1.7 13.4 4.6 19.3a45 45 0 0 0-42.1 44 45 45 0 0 0 42.2 44.2 42 42 0 0 0-4.6 19.3 45 45 0 0 0 42.3 44.1c-3 5.9-4.6 12.5-4.6 19.4a45.2 45.2 0 0 0 46 44.3c25.4 0 46-19.9 46-44.3 0-7-1.6-13.5-4.6-19.4a45 45 0 0 0 42.3-44.1 43 43 0 0 0-4.6-19.3A45 45 0 0 0 378 289ZM256.2 261a28.7 28.7 0 0 1 29.2 28.1 28.7 28.7 0 0 1-29.2 28.1 28.7 28.7 0 0 1-29.2-28 28.7 28.7 0 0 1 29.2-28.2Zm66.9-35.4a28.7 28.7 0 0 1-29.3 28.2 28.7 28.7 0 0 1-29.2-28.2 28.7 28.7 0 0 1 29.2-28 28.7 28.7 0 0 1 29.3 28ZM211.3 88c12.3 5.3 37 20.3 47.8 43 9.4 23.6 9.3 45 0 66.5-18.2-12.6-32.8-19.2-45.5-45.4-11-23.1-6-50.8-2.3-64Zm7.3 109.5a28.7 28.7 0 0 1 29.2 28.1 28.7 28.7 0 0 1-29.2 28.2 28.7 28.7 0 0 1-29.3-28.2 28.7 28.7 0 0 1 29.3-28Zm-67 91.6A28.7 28.7 0 0 1 181 261a28.7 28.7 0 0 1 29.3 28.1 28.7 28.7 0 0 1-29.3 28.1 28.7 28.7 0 0 1-29.2-28Zm37.7 63.5a28.7 28.7 0 0 1 29.3-28.1 28.7 28.7 0 0 1 29.2 28.1 28.7 28.7 0 0 1-29.2 28.1 28.7 28.7 0 0 1-29.3-28.1Zm66.9 91.6a28.7 28.7 0 0 1-29.2-28.1 28.7 28.7 0 0 1 29.2-28.1 28.7 28.7 0 0 1 29.2 28 28.7 28.7 0 0 1-29.2 28.2Zm37.6-63.5a28.7 28.7 0 0 1-29.2-28.1 28.7 28.7 0 0 1 29.2-28.1 28.7 28.7 0 0 1 29.3 28.1 28.7 28.7 0 0 1-29.3 28.1Zm38.1-63.5a28.7 28.7 0 0 1-29.2-28A28.7 28.7 0 0 1 332 261a28.7 28.7 0 0 1 29.3 28.1 28.7 28.7 0 0 1-29.3 28.1Z"/>
</svg>